<svg xmlns="http://www.w3.org/2000/svg" viewBox="0 0 355.09 502.92"><g id="Layer_2" data-name="Layer 2"><g id="Layer_1-2" data-name="Layer 1"><path d="M300.55,361.61c36.21-16.7,54.54-45.73,54.54-86.5,0-28.77-9.59-52.65-28.57-70.85-11.81-11.35-27.73-19.18-47.5-23.49-2.08-.45-4.24-.91-6.46-1.24a201.39,201.39,0,0,0-33.85-2.67H103a6.5,6.5,0,0,0-6.53,6.52v313a6.5,6.5,0,0,0,6.53,6.52h56.43a6.5,6.5,0,0,0,6.52-6.52V374.27h68.3l47,124.48a6.49,6.49,0,0,0,6.07,4.17h59.63a6.43,6.43,0,0,0,5.41-2.81,6.31,6.31,0,0,0,.65-6.06ZM275,309.75q-15,12.83-45.47,12.85H159.38V228.33h38.81c-.65,2.29-1.3,4.5-2.08,6.53h38c10.63,0,19.7,1.69,27.14,5.09A34.18,34.18,0,0,1,267,243q1.17-3,2.15-6.26a38.86,38.86,0,0,1,6,4.3q14.68,12.73,14.68,33.34Q289.85,296.9,275,309.75Z"/><path d="M348.57,275.11q0-40.62-26.62-66.15-16.14-15.57-43.32-21.6c-2.09-.52-4.24-.91-6.46-1.3a188.66,188.66,0,0,0-33.46-2.68H103v313h56.43V367.75h79.33l48.6,128.65h59.63l-54.8-138.24Q348.6,335.45,348.57,275.11ZM275,309.75q-15,12.83-45.47,12.85H159.38V228.33h74.76c11.35,0,21.14,1.76,29.23,5.42a34.53,34.53,0,0,1,5.8,3,38.86,38.86,0,0,1,6,4.3q14.68,12.73,14.68,33.34Q289.85,296.9,275,309.75Z"/><path d="M242.56,48.54C217.76,16.31,183.58,0,141,0,98.7,0,64.19,16.31,38.36,48.41,12.92,80.11,0,120,0,166.88s12.13,87.29,36.08,119.45c15.91,21.4,36.07,35.95,60.34,43.38a57,57,0,0,0,6.53,1.83,140.69,140.69,0,0,0,35.49,4.24c22.31,0,42.47-4.44,60.27-13.18H159.38V273.74a56.94,56.94,0,0,1-20.49,3.59c-14.42,0-26.29-4.18-35.94-12.66a53.3,53.3,0,0,1-6.53-6.85,64.75,64.75,0,0,1-4.89-6.72C80,232.77,74.11,205,74.11,168.71,74.11,94.53,95.64,58.45,140,58.45c22.18,0,38,8.94,48.47,27.34C199.5,105.1,205,132.5,205,167.07c0,3.33-.06,6.59-.13,9.79-.06,2.22-.13,4.37-.26,6.52q-1.17,26.63-6.46,45c-.65,2.29-1.3,4.5-2.08,6.53q-4.31,12-10.64,19.57A65.29,65.29,0,0,1,165.9,270.8v45.28h44.43a128.68,128.68,0,0,0,30.72-27.27A155.63,155.63,0,0,0,267,243q1.17-3,2.15-6.26a206.35,206.35,0,0,0,9.46-49.39c.13-2.15.33-4.37.39-6.59.2-4.37.33-8.74.33-13.24C279.35,120.23,267,80.24,242.56,48.54Z"/><path d="M237.4,52.52Q202,6.52,141,6.52q-60.57,0-97.53,46T6.52,166.88q0,68.79,34.78,115.54,22,29.74,55.12,40.51c2.09.78,4.31,1.37,6.53,2a137.27,137.27,0,0,0,35.49,4.37,135.39,135.39,0,0,0,43.31-6.66H159.38v-42a64,64,0,0,1-20.49,3.2Q118,283.85,103,273a56.77,56.77,0,0,1-6.53-5.48,72,72,0,0,1-10.37-13Q67.56,225.4,67.59,168.71,67.59,52,140,51.93q36.69,0,54.15,30.66t17.42,84.48c0,3.33-.07,6.59-.13,9.79-.07,2.22-.13,4.37-.2,6.52-.78,17.55-2.87,32.49-6.26,45-.59,2.29-1.24,4.44-2,6.53-3.26,9.72-7.44,17.61-12.53,23.74Q179.44,271.82,165.9,278v38h31.45A121.22,121.22,0,0,0,236,284.63,149.42,149.42,0,0,0,261.28,240c.72-2,1.43-4.11,2.09-6.2a199.21,199.21,0,0,0,8.8-47.69c.2-2.15.33-4.31.39-6.53.2-3.91.27-7.95.27-12Q272.83,98.55,237.4,52.52Z"/></g></g></svg>